<svg xmlns="http://www.w3.org/2000/svg" viewBox="6 8.09 108 103.81">   <g transform="matrix(1.2,0,0,1.2,0,0)" fill="#fd7014">     <polygon points="38.3181152,93.2531738 64.9382935,93.2536621 95,75.618103 95,60.5276489"/>     <path d="M35.4447632,24.9294434V92.484375l58.5039673-33.7774658L35.4447632,24.9294434z M49.8583984,49.8959961l15.2617188,8.8110352l-15.2617188,8.8095703V49.8959961z"/>     <polygon points="79.8696899,32.7814941 49.5643311,15.5639648 36.4959106,23.1086426 93.1793823,55.8353271"/>     <polygon points="20.2736206,84.9384155 33.3422852,92.4837036 33.3422852,27.0325928 20.0314331,50.0864258"/>     <polygon points="64.838501,6.7457886 51.675293,14.3452759 77.7923584,29.1832275"/>     <polygon points="5,76.1201782 18.1630859,83.7199097 17.9543457,53.6838379"/>     <polygon points="95,93.2541504 95,78.0545044 69.0911255,93.2537231"/>     <polygon points="51.8583984,53.3603516 51.8583984,64.0537109 61.1201172,58.7070312"/>   </g> </svg>